/* XPM */
static const char * mvIcon_xpm[] = {
"32 32 88 1",
" 	c None",
".	c #B8B5BA",
"+	c #B3AEAC",
"@	c #AEB0AD",
"#	c #B0B2AE",
"$	c #B4B6B3",
"%	c #B8BAB7",
"&	c #BBBDBA",
"*	c #BEC1BD",
"=	c #C0C2BE",
"-	c #C4C6C3",
";	c #A1A8CA",
">	c #4E56C6",
",	c #4D53CA",
"'	c #545ACB",
")	c #B3B6D3",
"!	c #DFE1DE",
"~	c #E4E6E3",
"{	c #B9B8DD",
"]	c #656DD2",
"^	c #ABADAA",
"/	c #A0A29F",
"(	c #A4A6A3",
"_	c #A6A8A5",
":	c #A3A8AB",
"<	c #A8AAA7",
"[	c #A2A6C2",
"}	c #3F48C4",
"|	c #3B3BC0",
"1	c #8C89CC",
"2	c #DCDEDB",
"3	c #7B83CF",
"4	c #545DC7",
"5	c #ACA6A5",
"6	c #B3B3BD",
"7	c #5D5DC2",
"8	c #5962C6",
"9	c #CECED9",
"0	c #D8DAD6",
"a	c #9C9E9B",
"b	c #A39E9D",
"c	c #858ACB",
"d	c #D7D5D9",
"e	c #DCD7D5",
"f	c #AEADD1",
"g	c #3641C4",
"h	c #ACAFD8",
"i	c #CCCACE",
"j	c #ADB0CD",
"k	c #D3D5D2",
"l	c #CACBD5",
"m	c #C7C9C6",
"n	c #6567C6",
"o	c #727BC7",
"p	c #969895",
"q	c #454DC3",
"r	c #B8B7CE",
"s	c #B3B3CA",
"t	c #A0A3CC",
"u	c #9296CB",
"v	c #BCBDC7",
"w	c #CDD2D5",
"x	c #939592",
"y	c #9B9694",
"z	c #BFC0CA",
"A	c #686CC4",
"B	c #7575C2",
"C	c #7D83C2",
"D	c #8F918E",
"E	c #A6A9C5",
"F	c #B7B8C2",
"G	c #8C8E8B",
"H	c #8D8EC9",
"I	c #504EC0",
"J	c #AFB3C2",
"K	c #B1ADBF",
"L	c #EBEEEA",
"M	c #F3F6F2",
"N	c #F0F2EF",
"O	c #E8EAE7",
"P	c #FEFFFC",
"Q	c #888A87",
"R	c #88868A",
"S	c #848683",
"T	c #80827F",
"U	c #7C7E7B",
"V	c #787A77",
"W	c #7B7675",
".+@##$$..%&&&*==---;>,')!!!~{',]",
"^//(_:<:^^+##$$.%%&[}||122223||4",
"://(((5_:^^@@#$$$%%67||890094||3",
"<ab///(__<:^^+##$$%-c||})defg|gh",
"5aaa//(((:_::^@@#$-ij}||1kkc||>l",
"(aaaab///((5<:^+@&mi-8||nli8||od",
"(ppaaabb/(((5_::$--mmc||qrs}|gtd",
"/pppaaabb///(5:^&---mj}||u1||>vw",
"/xyppaaaab//(((#*=---z7||An||Bmw",
"bxxppppaaaab//5%&v==--C||}g|gtmw",
"aDxxxxppaaaabb^%&&&*=-E}||||>F-i",
"aDDxxxpyppaaa/#$.%&&v=F4||||B--i",
"aGDDDxxxxyppa(#$..%&&&*HIqq>t--m",
"pGGGDDDxxpypa:##$$$.%&&FJKK6v=*m",
"pGGGGGDDpbbab:++##$&=*&&&&&&&&v-",
"*wkmpGb-~LL~i#:^+*2LMNOe*&&v&&&-",
"LPPP^#OPPPPPPO$^iMPPPPPPO*%%%&%-",
"LPPPkNPPPPPPPP~kPPPPPPPPP!%.%.%=",
"LPPPPPPPPPPPPPPPPPPPPPPPPM=$.$.*",
"NPPPPPO.(%NPPPPPPO-&wMPPPPi$#$#&",
"LPPPP~aQRQ&PPPPP!+((:0PPPPd@@@#&",
"LPPPM(SSRRaNPPPL:///5*PPPP2+^+^.",
"LPPPODTSSSpLPPP!bab/($MPPP2::^^$",
"LPPPLGTSSSxLPPP!apabb$MPPP2<<<<$",
"LPPPLGTTTSxLPPP!ppaaa@MPPP0:(__#",
"LPPPOGUTTTxLPPP2pxppp+MPPP0((((@",
"LPPPOQUUTTDOPPP2xxxpp^MPPP0///(^",
"LPPPOQUUUTGLPPP2DDDxx<MPPPe//b/:",
"LPPPOQUUUUGOPPP2GGGDD_MPPPkaaaa<",
"LPPPORVVUUQOPPP2GQGGG(MPPPkaaaa:",
"LPPPOSWVVVROPPP2QSRQG(MPPPkyppp(",
"LPPPLxRRQQxLPPP!xxxpp:MPPP0////^"};
